<svg xmlns="http://www.w3.org/2000/svg" width="0" height="0" style="position: absolute; pointer-events: none;">
  <defs>
    <clipPath id="stars-mask" clipPathUnits="objectBoundingBox" transform="scale(0.00096583083666062 0.0076416377558038)">
      <path d="M4.416 49.264L45.79 43.33 64.318 3.77l18.526 39.56 41.376 5.934-29.642 31.648 6.793 44.176-37.053-21.099-37.053 21.099 6.793-44.176zm299.1-5.934l41.376 5.934-29.642 31.648 6.793 44.176-37.053-21.099-37.053 21.099 6.793-44.176-29.642-31.648 41.375-5.934L284.99 3.77zm195.477 0L517.52 3.77l18.526 39.56 41.376 5.934-29.642 31.648 6.793 44.176-37.053-21.099-37.053 21.099 6.793-44.176-29.642-31.648zm191.874 5.934l41.375-5.934L750.77 3.77l18.526 39.56 41.376 5.934-29.642 31.648 6.793 44.176-37.053-21.099-37.053 21.099 6.793-44.176zm219.741 0l41.375-5.934L970.51 3.77l18.526 39.56 41.376 5.934-29.642 31.648 6.793 44.176-37.053-21.099-37.053 21.099 6.793-44.176z"></path>
    </clipPath>
  </defs>
</svg>