<svg xmlns="http://www.w3.org/2000/svg" viewBox="0 0 1035.378 130.862" width="1035"><path d="M64.593 105.462L27.54 126.561l6.793-44.176L4.691 50.737l41.375-5.934 18.527-39.56 18.526 39.56 41.376 5.934-29.642 31.648 6.793 44.176zm160.771-54.725l41.375-5.934 18.527-39.56 18.526 39.56 41.376 5.934-29.642 31.648 6.793 44.176-37.053-21.099-37.053 21.099 6.793-44.176zm255.379 75.823l6.793-44.175-29.642-31.648 41.375-5.934 18.527-39.56 18.526 39.56 41.376 5.934-29.642 31.648 6.793 44.176-37.053-21.099zm270.302-21.098l-37.053 21.099 6.793-44.176-29.642-31.648 41.375-5.934 18.527-39.56 18.526 39.56 41.376 5.934-29.642 31.648 6.793 44.176zm219.74 0l-37.053 21.099 6.793-44.176-29.642-31.648 41.375-5.934 18.527-39.56 18.526 39.56 41.376 5.934-29.642 31.648 6.793 44.176z" fill="tranparent" stroke="#000" stroke-width="7.112"></path></svg>